<mxfile host="app.diagrams.net" modified="2023-06-06T07:54:53.998Z" agent="Mozilla/5.0 (Windows NT 10.0; Win64; x64) AppleWebKit/537.36 (KHTML, like Gecko) Chrome/114.0.0.0 Safari/537.36 Edg/114.0.1823.37" etag="WSSrlEii7SNTEwaVgJLM" version="21.3.2" type="github">
  <diagram name="Page-1" id="LLEM75RUeJF9uCcO0HFy">
    <mxGraphModel dx="1434" dy="788" grid="1" gridSize="10" guides="1" tooltips="1" connect="1" arrows="1" fold="1" page="1" pageScale="1" pageWidth="850" pageHeight="1100" math="0" shadow="0">
      <root>
        <mxCell id="0" />
        <mxCell id="1" parent="0" />
        <mxCell id="vjRecWmhVQroPyFLyt60-1" style="rounded=0;orthogonalLoop=1;jettySize=auto;html=1;entryX=1;entryY=1;entryDx=0;entryDy=0;endArrow=none;endFill=0;" parent="1" source="vjRecWmhVQroPyFLyt60-5" target="vjRecWmhVQroPyFLyt60-19" edge="1">
          <mxGeometry relative="1" as="geometry" />
        </mxCell>
        <mxCell id="vjRecWmhVQroPyFLyt60-2" style="rounded=0;orthogonalLoop=1;jettySize=auto;html=1;entryX=0;entryY=1;entryDx=0;entryDy=0;endArrow=none;endFill=0;" parent="1" source="vjRecWmhVQroPyFLyt60-5" target="vjRecWmhVQroPyFLyt60-12" edge="1">
          <mxGeometry relative="1" as="geometry" />
        </mxCell>
        <mxCell id="vjRecWmhVQroPyFLyt60-3" style="rounded=0;orthogonalLoop=1;jettySize=auto;html=1;entryX=0;entryY=0.5;entryDx=0;entryDy=0;endArrow=none;endFill=0;" parent="1" source="vjRecWmhVQroPyFLyt60-5" target="vjRecWmhVQroPyFLyt60-30" edge="1">
          <mxGeometry relative="1" as="geometry" />
        </mxCell>
        <mxCell id="vjRecWmhVQroPyFLyt60-4" style="rounded=0;orthogonalLoop=1;jettySize=auto;html=1;entryX=0;entryY=0;entryDx=0;entryDy=0;endArrow=none;endFill=0;" parent="1" source="vjRecWmhVQroPyFLyt60-5" target="vjRecWmhVQroPyFLyt60-43" edge="1">
          <mxGeometry relative="1" as="geometry" />
        </mxCell>
        <mxCell id="vjRecWmhVQroPyFLyt60-5" value="Người dùng" style="shape=umlActor;verticalLabelPosition=bottom;verticalAlign=top;html=1;outlineConnect=0;" parent="1" vertex="1">
          <mxGeometry x="360" y="280" width="30" height="60" as="geometry" />
        </mxCell>
        <mxCell id="vjRecWmhVQroPyFLyt60-6" style="rounded=0;orthogonalLoop=1;jettySize=auto;html=1;dashed=1;exitX=0.5;exitY=1;exitDx=0;exitDy=0;" parent="1" source="vjRecWmhVQroPyFLyt60-46" target="vjRecWmhVQroPyFLyt60-12" edge="1">
          <mxGeometry relative="1" as="geometry" />
        </mxCell>
        <mxCell id="vjRecWmhVQroPyFLyt60-7" value="&amp;lt;&amp;lt;include&amp;gt;&amp;gt;" style="edgeLabel;html=1;align=center;verticalAlign=middle;resizable=0;points=[];" parent="vjRecWmhVQroPyFLyt60-6" vertex="1" connectable="0">
          <mxGeometry x="-0.4293" relative="1" as="geometry">
            <mxPoint x="-7" y="9" as="offset" />
          </mxGeometry>
        </mxCell>
        <mxCell id="vjRecWmhVQroPyFLyt60-8" style="rounded=0;orthogonalLoop=1;jettySize=auto;html=1;endArrow=classic;endFill=1;dashed=1;exitX=0;exitY=1;exitDx=0;exitDy=0;" parent="1" source="vjRecWmhVQroPyFLyt60-47" target="vjRecWmhVQroPyFLyt60-12" edge="1">
          <mxGeometry relative="1" as="geometry" />
        </mxCell>
        <mxCell id="vjRecWmhVQroPyFLyt60-9" value="&amp;lt;&amp;lt;extend&amp;gt;&amp;gt;" style="edgeLabel;html=1;align=center;verticalAlign=middle;resizable=0;points=[];" parent="vjRecWmhVQroPyFLyt60-8" vertex="1" connectable="0">
          <mxGeometry x="0.3349" y="2" relative="1" as="geometry">
            <mxPoint x="17" y="-16" as="offset" />
          </mxGeometry>
        </mxCell>
        <mxCell id="vjRecWmhVQroPyFLyt60-10" style="rounded=0;orthogonalLoop=1;jettySize=auto;html=1;dashed=1;endArrow=classic;endFill=1;exitX=0;exitY=0.5;exitDx=0;exitDy=0;" parent="1" source="vjRecWmhVQroPyFLyt60-48" target="vjRecWmhVQroPyFLyt60-12" edge="1">
          <mxGeometry relative="1" as="geometry" />
        </mxCell>
        <mxCell id="vjRecWmhVQroPyFLyt60-11" value="&amp;lt;&amp;lt;extend&amp;gt;&amp;gt;" style="edgeLabel;html=1;align=center;verticalAlign=middle;resizable=0;points=[];" parent="vjRecWmhVQroPyFLyt60-10" vertex="1" connectable="0">
          <mxGeometry x="0.2764" y="-3" relative="1" as="geometry">
            <mxPoint x="18" y="1" as="offset" />
          </mxGeometry>
        </mxCell>
        <mxCell id="vjRecWmhVQroPyFLyt60-64" style="rounded=0;orthogonalLoop=1;jettySize=auto;html=1;dashed=1;exitX=1;exitY=1;exitDx=0;exitDy=0;" parent="1" source="vjRecWmhVQroPyFLyt60-59" target="vjRecWmhVQroPyFLyt60-12" edge="1">
          <mxGeometry relative="1" as="geometry" />
        </mxCell>
        <mxCell id="vjRecWmhVQroPyFLyt60-65" value="&amp;lt;&amp;lt;extend&amp;gt;&amp;gt;" style="edgeLabel;html=1;align=center;verticalAlign=middle;resizable=0;points=[];" parent="vjRecWmhVQroPyFLyt60-64" vertex="1" connectable="0">
          <mxGeometry x="-0.2269" y="3" relative="1" as="geometry">
            <mxPoint as="offset" />
          </mxGeometry>
        </mxCell>
        <mxCell id="vjRecWmhVQroPyFLyt60-12" value="Quản lý lịch trình du lịch" style="ellipse;whiteSpace=wrap;html=1;" parent="1" vertex="1">
          <mxGeometry x="410" y="130" width="120" height="80" as="geometry" />
        </mxCell>
        <mxCell id="vjRecWmhVQroPyFLyt60-13" style="rounded=0;orthogonalLoop=1;jettySize=auto;html=1;dashed=1;exitX=1;exitY=1;exitDx=0;exitDy=0;" parent="1" source="vjRecWmhVQroPyFLyt60-57" target="vjRecWmhVQroPyFLyt60-19" edge="1">
          <mxGeometry relative="1" as="geometry" />
        </mxCell>
        <mxCell id="vjRecWmhVQroPyFLyt60-14" value="&amp;lt;&amp;lt;extend&amp;gt;&amp;gt;" style="edgeLabel;html=1;align=center;verticalAlign=middle;resizable=0;points=[];" parent="vjRecWmhVQroPyFLyt60-13" vertex="1" connectable="0">
          <mxGeometry x="0.286" relative="1" as="geometry">
            <mxPoint x="-11" y="-7" as="offset" />
          </mxGeometry>
        </mxCell>
        <mxCell id="vjRecWmhVQroPyFLyt60-15" style="rounded=0;orthogonalLoop=1;jettySize=auto;html=1;dashed=1;exitX=0.5;exitY=1;exitDx=0;exitDy=0;" parent="1" source="vjRecWmhVQroPyFLyt60-58" target="vjRecWmhVQroPyFLyt60-19" edge="1">
          <mxGeometry relative="1" as="geometry" />
        </mxCell>
        <mxCell id="vjRecWmhVQroPyFLyt60-16" value="&amp;lt;&amp;lt;extend&amp;gt;&amp;gt;" style="edgeLabel;html=1;align=center;verticalAlign=middle;resizable=0;points=[];" parent="vjRecWmhVQroPyFLyt60-15" vertex="1" connectable="0">
          <mxGeometry x="0.2871" y="1" relative="1" as="geometry">
            <mxPoint x="-4" y="-13" as="offset" />
          </mxGeometry>
        </mxCell>
        <mxCell id="vjRecWmhVQroPyFLyt60-19" value="Chat với AI" style="ellipse;whiteSpace=wrap;html=1;" parent="1" vertex="1">
          <mxGeometry x="190" y="150" width="120" height="80" as="geometry" />
        </mxCell>
        <mxCell id="vjRecWmhVQroPyFLyt60-20" style="rounded=0;orthogonalLoop=1;jettySize=auto;html=1;dashed=1;" parent="1" source="vjRecWmhVQroPyFLyt60-49" target="vjRecWmhVQroPyFLyt60-30" edge="1">
          <mxGeometry relative="1" as="geometry" />
        </mxCell>
        <mxCell id="vjRecWmhVQroPyFLyt60-21" value="&amp;lt;&amp;lt;extend&amp;gt;&amp;gt;" style="edgeLabel;html=1;align=center;verticalAlign=middle;resizable=0;points=[];" parent="vjRecWmhVQroPyFLyt60-20" vertex="1" connectable="0">
          <mxGeometry x="0.3429" y="-2" relative="1" as="geometry">
            <mxPoint x="23" y="11" as="offset" />
          </mxGeometry>
        </mxCell>
        <mxCell id="vjRecWmhVQroPyFLyt60-22" style="rounded=0;orthogonalLoop=1;jettySize=auto;html=1;dashed=1;exitX=0;exitY=0.5;exitDx=0;exitDy=0;" parent="1" source="vjRecWmhVQroPyFLyt60-50" target="vjRecWmhVQroPyFLyt60-30" edge="1">
          <mxGeometry relative="1" as="geometry" />
        </mxCell>
        <mxCell id="vjRecWmhVQroPyFLyt60-23" value="&amp;lt;&amp;lt;extend&amp;gt;&amp;gt;" style="edgeLabel;html=1;align=center;verticalAlign=middle;resizable=0;points=[];" parent="vjRecWmhVQroPyFLyt60-22" vertex="1" connectable="0">
          <mxGeometry x="0.3246" y="-3" relative="1" as="geometry">
            <mxPoint x="31" y="-5" as="offset" />
          </mxGeometry>
        </mxCell>
        <mxCell id="vjRecWmhVQroPyFLyt60-24" style="rounded=0;orthogonalLoop=1;jettySize=auto;html=1;dashed=1;exitX=0;exitY=0.5;exitDx=0;exitDy=0;" parent="1" source="vjRecWmhVQroPyFLyt60-51" target="vjRecWmhVQroPyFLyt60-30" edge="1">
          <mxGeometry relative="1" as="geometry" />
        </mxCell>
        <mxCell id="vjRecWmhVQroPyFLyt60-25" value="&amp;lt;&amp;lt;extend&amp;gt;&amp;gt;" style="edgeLabel;html=1;align=center;verticalAlign=middle;resizable=0;points=[];" parent="vjRecWmhVQroPyFLyt60-24" vertex="1" connectable="0">
          <mxGeometry x="-0.17" y="1" relative="1" as="geometry">
            <mxPoint as="offset" />
          </mxGeometry>
        </mxCell>
        <mxCell id="vjRecWmhVQroPyFLyt60-26" style="rounded=0;orthogonalLoop=1;jettySize=auto;html=1;dashed=1;exitX=0;exitY=0;exitDx=0;exitDy=0;" parent="1" source="vjRecWmhVQroPyFLyt60-52" target="vjRecWmhVQroPyFLyt60-30" edge="1">
          <mxGeometry relative="1" as="geometry" />
        </mxCell>
        <mxCell id="vjRecWmhVQroPyFLyt60-27" value="&amp;lt;&amp;lt;include&amp;gt;&amp;gt;" style="edgeLabel;html=1;align=center;verticalAlign=middle;resizable=0;points=[];" parent="vjRecWmhVQroPyFLyt60-26" vertex="1" connectable="0">
          <mxGeometry x="-0.3769" y="-4" relative="1" as="geometry">
            <mxPoint as="offset" />
          </mxGeometry>
        </mxCell>
        <mxCell id="vjRecWmhVQroPyFLyt60-30" value="Quản lý địa điểm du lịch" style="ellipse;whiteSpace=wrap;html=1;" parent="1" vertex="1">
          <mxGeometry x="480" y="250" width="120" height="80" as="geometry" />
        </mxCell>
        <mxCell id="vjRecWmhVQroPyFLyt60-31" style="rounded=0;orthogonalLoop=1;jettySize=auto;html=1;entryX=1;entryY=1;entryDx=0;entryDy=0;dashed=1;" parent="1" source="vjRecWmhVQroPyFLyt60-36" target="vjRecWmhVQroPyFLyt60-44" edge="1">
          <mxGeometry relative="1" as="geometry" />
        </mxCell>
        <mxCell id="vjRecWmhVQroPyFLyt60-32" value="&amp;lt;&amp;lt;Extend&amp;gt;&amp;gt;" style="edgeLabel;html=1;align=center;verticalAlign=middle;resizable=0;points=[];" parent="vjRecWmhVQroPyFLyt60-31" vertex="1" connectable="0">
          <mxGeometry x="0.2471" relative="1" as="geometry">
            <mxPoint x="12" y="2" as="offset" />
          </mxGeometry>
        </mxCell>
        <mxCell id="vjRecWmhVQroPyFLyt60-33" style="rounded=0;orthogonalLoop=1;jettySize=auto;html=1;entryX=1;entryY=0;entryDx=0;entryDy=0;dashed=1;" parent="1" source="vjRecWmhVQroPyFLyt60-36" target="vjRecWmhVQroPyFLyt60-45" edge="1">
          <mxGeometry relative="1" as="geometry" />
        </mxCell>
        <mxCell id="vjRecWmhVQroPyFLyt60-34" value="&amp;lt;&amp;lt;include&amp;gt;&amp;gt;" style="edgeLabel;html=1;align=center;verticalAlign=middle;resizable=0;points=[];" parent="vjRecWmhVQroPyFLyt60-33" vertex="1" connectable="0">
          <mxGeometry x="-0.2799" relative="1" as="geometry">
            <mxPoint x="-17" as="offset" />
          </mxGeometry>
        </mxCell>
        <mxCell id="vjRecWmhVQroPyFLyt60-35" style="rounded=0;orthogonalLoop=1;jettySize=auto;html=1;endArrow=none;endFill=0;" parent="1" source="vjRecWmhVQroPyFLyt60-36" target="vjRecWmhVQroPyFLyt60-5" edge="1">
          <mxGeometry relative="1" as="geometry" />
        </mxCell>
        <mxCell id="vjRecWmhVQroPyFLyt60-36" value="Đăng nhập" style="ellipse;whiteSpace=wrap;html=1;" parent="1" vertex="1">
          <mxGeometry x="180" y="400" width="100" height="70" as="geometry" />
        </mxCell>
        <mxCell id="vjRecWmhVQroPyFLyt60-37" style="rounded=0;orthogonalLoop=1;jettySize=auto;html=1;dashed=1;exitX=0.5;exitY=0;exitDx=0;exitDy=0;" parent="1" source="vjRecWmhVQroPyFLyt60-53" target="vjRecWmhVQroPyFLyt60-43" edge="1">
          <mxGeometry relative="1" as="geometry" />
        </mxCell>
        <mxCell id="vjRecWmhVQroPyFLyt60-38" value="&amp;lt;&amp;lt;extend&amp;gt;&amp;gt;" style="edgeLabel;html=1;align=center;verticalAlign=middle;resizable=0;points=[];" parent="vjRecWmhVQroPyFLyt60-37" vertex="1" connectable="0">
          <mxGeometry x="-0.2297" y="4" relative="1" as="geometry">
            <mxPoint as="offset" />
          </mxGeometry>
        </mxCell>
        <mxCell id="vjRecWmhVQroPyFLyt60-39" style="rounded=0;orthogonalLoop=1;jettySize=auto;html=1;dashed=1;exitX=0.5;exitY=0;exitDx=0;exitDy=0;" parent="1" source="vjRecWmhVQroPyFLyt60-54" target="vjRecWmhVQroPyFLyt60-43" edge="1">
          <mxGeometry relative="1" as="geometry" />
        </mxCell>
        <mxCell id="vjRecWmhVQroPyFLyt60-40" value="&amp;lt;&amp;lt;include&amp;gt;&amp;gt;" style="edgeLabel;html=1;align=center;verticalAlign=middle;resizable=0;points=[];" parent="vjRecWmhVQroPyFLyt60-39" vertex="1" connectable="0">
          <mxGeometry x="0.123" y="-3" relative="1" as="geometry">
            <mxPoint as="offset" />
          </mxGeometry>
        </mxCell>
        <mxCell id="vjRecWmhVQroPyFLyt60-41" style="rounded=0;orthogonalLoop=1;jettySize=auto;html=1;dashed=1;exitX=0.5;exitY=0;exitDx=0;exitDy=0;" parent="1" source="vjRecWmhVQroPyFLyt60-56" target="vjRecWmhVQroPyFLyt60-43" edge="1">
          <mxGeometry relative="1" as="geometry" />
        </mxCell>
        <mxCell id="vjRecWmhVQroPyFLyt60-42" value="&amp;lt;&amp;lt;extend&amp;gt;&amp;gt;" style="edgeLabel;html=1;align=center;verticalAlign=middle;resizable=0;points=[];" parent="vjRecWmhVQroPyFLyt60-41" vertex="1" connectable="0">
          <mxGeometry x="-0.327" relative="1" as="geometry">
            <mxPoint as="offset" />
          </mxGeometry>
        </mxCell>
        <mxCell id="vjRecWmhVQroPyFLyt60-43" value="Xem hồ sơ cá nhân" style="ellipse;whiteSpace=wrap;html=1;" parent="1" vertex="1">
          <mxGeometry x="425" y="370" width="120" height="80" as="geometry" />
        </mxCell>
        <mxCell id="vjRecWmhVQroPyFLyt60-44" value="Đăng xuất" style="ellipse;whiteSpace=wrap;html=1;" parent="1" vertex="1">
          <mxGeometry x="30" y="320" width="90" height="50" as="geometry" />
        </mxCell>
        <mxCell id="vjRecWmhVQroPyFLyt60-45" value="Xác thực tài khoản" style="ellipse;whiteSpace=wrap;html=1;" parent="1" vertex="1">
          <mxGeometry x="20" y="480" width="90" height="50" as="geometry" />
        </mxCell>
        <mxCell id="vjRecWmhVQroPyFLyt60-46" value="Xem lịch trình đã lưu" style="ellipse;whiteSpace=wrap;html=1;" parent="1" vertex="1">
          <mxGeometry x="520" y="10" width="90" height="50" as="geometry" />
        </mxCell>
        <mxCell id="vjRecWmhVQroPyFLyt60-47" value="Lưu lịch trình du lịch" style="ellipse;whiteSpace=wrap;html=1;" parent="1" vertex="1">
          <mxGeometry x="630" y="60" width="90" height="50" as="geometry" />
        </mxCell>
        <mxCell id="vjRecWmhVQroPyFLyt60-48" value="Xoá lịch trình du lịch" style="ellipse;whiteSpace=wrap;html=1;" parent="1" vertex="1">
          <mxGeometry x="660" y="140" width="90" height="50" as="geometry" />
        </mxCell>
        <mxCell id="vjRecWmhVQroPyFLyt60-49" value="Lưu địa điểm" style="ellipse;whiteSpace=wrap;html=1;" parent="1" vertex="1">
          <mxGeometry x="720" y="360" width="90" height="50" as="geometry" />
        </mxCell>
        <mxCell id="vjRecWmhVQroPyFLyt60-50" value="Xoá địa điểm đã lưu" style="ellipse;whiteSpace=wrap;html=1;" parent="1" vertex="1">
          <mxGeometry x="730" y="280" width="90" height="50" as="geometry" />
        </mxCell>
        <mxCell id="vjRecWmhVQroPyFLyt60-51" value="Tìm kiếm địa điểm" style="ellipse;whiteSpace=wrap;html=1;" parent="1" vertex="1">
          <mxGeometry x="730" y="200" width="90" height="50" as="geometry" />
        </mxCell>
        <mxCell id="vjRecWmhVQroPyFLyt60-52" value="Xem địa điểm đã lưu" style="ellipse;whiteSpace=wrap;html=1;" parent="1" vertex="1">
          <mxGeometry x="660" y="440" width="90" height="50" as="geometry" />
        </mxCell>
        <mxCell id="vjRecWmhVQroPyFLyt60-53" value="Thay đổi thông tin" style="ellipse;whiteSpace=wrap;html=1;" parent="1" vertex="1">
          <mxGeometry x="310" y="540" width="90" height="50" as="geometry" />
        </mxCell>
        <mxCell id="vjRecWmhVQroPyFLyt60-54" value="Xem các thông tin cá nhân" style="ellipse;whiteSpace=wrap;html=1;" parent="1" vertex="1">
          <mxGeometry x="440" y="550" width="90" height="50" as="geometry" />
        </mxCell>
        <mxCell id="vjRecWmhVQroPyFLyt60-56" value="Xoá tài khoản" style="ellipse;whiteSpace=wrap;html=1;" parent="1" vertex="1">
          <mxGeometry x="550" y="530" width="90" height="50" as="geometry" />
        </mxCell>
        <mxCell id="vjRecWmhVQroPyFLyt60-57" value="Cuộc hội thoại mới" style="ellipse;whiteSpace=wrap;html=1;" parent="1" vertex="1">
          <mxGeometry x="20" y="90" width="90" height="50" as="geometry" />
        </mxCell>
        <mxCell id="vjRecWmhVQroPyFLyt60-58" value="Xem các cuộc hội thoại cũ" style="ellipse;whiteSpace=wrap;html=1;" parent="1" vertex="1">
          <mxGeometry x="120" y="20" width="90" height="50" as="geometry" />
        </mxCell>
        <mxCell id="vjRecWmhVQroPyFLyt60-60" style="rounded=0;orthogonalLoop=1;jettySize=auto;html=1;entryX=0.5;entryY=0;entryDx=0;entryDy=0;dashed=1;" parent="1" source="vjRecWmhVQroPyFLyt60-59" target="vjRecWmhVQroPyFLyt60-19" edge="1">
          <mxGeometry relative="1" as="geometry" />
        </mxCell>
        <mxCell id="vjRecWmhVQroPyFLyt60-61" value="&amp;lt;&amp;lt;include&amp;gt;&amp;gt;" style="edgeLabel;html=1;align=center;verticalAlign=middle;resizable=0;points=[];" parent="vjRecWmhVQroPyFLyt60-60" vertex="1" connectable="0">
          <mxGeometry x="-0.1972" y="1" relative="1" as="geometry">
            <mxPoint as="offset" />
          </mxGeometry>
        </mxCell>
        <mxCell id="vjRecWmhVQroPyFLyt60-59" value="Lên lịch trình du lịch" style="ellipse;whiteSpace=wrap;html=1;" parent="1" vertex="1">
          <mxGeometry x="320" y="20" width="90" height="50" as="geometry" />
        </mxCell>
      </root>
    </mxGraphModel>
  </diagram>
</mxfile>
